Coordinates
version=1
nRows=5
nColumns=40
inDegrees=yes

Units are S.I. units (second, meters, Newtons, ...)
Angles are in degrees.

endheader
time	pelvis_tilt	pelvis_list	pelvis_rotation	pelvis_tx	pelvis_ty	pelvis_tz	hip_flexion_r	hip_adduction_r	hip_rotation_r	knee_angle_r	knee_angle_r_beta	ankle_angle_r	subtalar_angle_r	mtp_angle_r	hip_flexion_l	hip_adduction_l	hip_rotation_l	knee_angle_l	knee_angle_l_beta	ankle_angle_l	subtalar_angle_l	mtp_angle_l	lumbar_extension	lumbar_bending	lumbar_rotation	arm_flex_r	arm_add_r	arm_rot_r	elbow_flex_r	pro_sup_r	wrist_flex_r	wrist_dev_r	arm_flex_l	arm_add_l	arm_rot_l	elbow_flex_l	pro_sup_l	wrist_flex_l	wrist_dev_l
     10.39128571	     -2.63791258	     -4.02257519	      3.33260252	      0.95615305	      0.90839969	      0.55351404	     13.91207134	      6.04766069	     -6.08162604	     31.38236741	     31.38236741	     20.85697923	    -13.98612784	      1.78076257	     31.19789699	    -12.25700698	      2.02280756	     60.11233471	     60.11233471	     17.63844244	    -19.62063330	     23.53715359	    -11.16565781	      5.45336749	      0.50725260	     15.89491858	    -14.54716312	    -18.07301124	     40.32195214	     46.28834440	      0.00000000	      0.00000000	     12.60162829	     -8.10872331	      2.13949654	     26.87601340	     46.29311734	      0.00000000	      0.00000000
     10.41007143	     -2.59200047	     -3.90586011	      4.08577931	      0.95487515	      0.90820981	      0.55352252	     13.53916222	      5.92689261	     -6.50118638	     31.35811981	     31.35811981	     21.08763909	    -14.29295626	      1.84075731	     32.00075429	    -11.82661552	      2.12116439	     57.85958568	     57.85958568	     17.55841500	    -19.59804976	     23.35957536	    -11.16245817	      5.06450318	      0.30369493	     18.19948417	    -14.25894458	    -17.86419938	     42.48441728	     46.20177880	      0.00000000	      0.00000000	     10.20813416	     -7.89995781	      2.29968613	     25.65184950	     46.22082454	      0.00000000	      0.00000000
     10.42885714	     -2.64625048	     -3.75413109	      4.77445622	      0.95355846	      0.90849408	      0.55331148	     13.14228859	      5.73710000	     -6.94606688	     31.09806489	     31.09806489	     21.23322531	    -14.38408558	      1.92518339	     32.65494828	    -11.25419818	      2.30104204	     55.19474583	     55.19474583	     17.15701004	    -19.55573697	     22.98406719	    -11.10528455	      4.65245342	      0.22546282	     20.32823696	    -14.03377383	    -17.57128610	     45.09448357	     46.09514978	      0.00000000	      0.00000000	      7.80926470	     -7.73028469	      2.41764511	     24.65220337	     46.15309354	      0.00000000	      0.00000000
     10.44764286	     -2.83819135	     -3.64771402	      5.41214131	      0.95219402	      0.90899340	      0.55288860	     12.82730821	      5.53533392	     -7.51293833	     30.70984882	     30.70984882	     21.30001815	    -14.20616491	      1.97330179	     33.20302950	    -10.66591193	      2.57255943	     52.14386218	     52.14386218	     15.98411652	    -19.48705037	     20.93904504	    -11.00780633	      4.30192322	      0.65941704	     21.10099271	    -14.58296305	    -16.13726892	     50.75227781	     45.80971001	      0.00000000	      0.00000000	      5.35350192	     -7.55537705	      2.62699892	     24.77090075	     46.04375525	      0.00000000	      0.00000000
     10.46642857	     -3.06252462	     -3.47927298	      5.97443205	      0.95085049	      0.90999325	      0.55224687	     12.41308161	      5.25598199	     -8.05043855	     30.09144951	     30.09144951	     21.23415085	    -13.91709092	      1.90292631	     33.53427480	     -9.92787098	      2.99851490	     48.84060517	     48.84060517	     14.84770336	    -19.36940895	     19.49381429	    -10.87288118	      3.88018065	      0.87791509	     22.73900192	    -14.83954135	    -15.39049850	     54.69000229	     45.64042474	      0.00000000	      0.00000000	      3.02577086	     -7.49128331	      3.09817637	     24.34049551	     45.89645704	      0.00000000	      0.00000000
